<svg width="72" height="72" xmlns="http://www.w3.org/2000/svg" stroke="#ff0000" xml:space="preserve" version="1.1" fill="#ff0000">
 <title>Air-craft</title>

 <g>
  <title>Layer 1</title>
  <g stroke-width="0" id="SVGRepo_bgCarrier"/>
  <g stroke-linejoin="round" stroke-linecap="round" id="SVGRepo_tracerCarrier"/>
  <g id="SVGRepo_iconCarrier">
   <g id="svg_1">
    <path transform="rotate(-45, 35.8845, 41.3743)" id="svg_2" d="m59.51521,17.91316c-1.6,-1.6 -6.8,1.2 -8.4,2.8l-6.2,6.2l-28.4,0c-0.7,0 -1.3,0.5 -1.4,1.1c-0.1,0.7 0.2,1.3 0.9,1.6l18.8,7.4l-11.6,11.5l-10.9,0c-0.2,0 -0.4,0.2 -0.5,0.4c0,0.2 0.1,0.5 0.3,0.5l9.2,3.6c0.1,0.2 0.1,0.5 0.2,0.7l-0.4,0.4c-0.6,0.6 -0.6,1.5 0,2.1c0.6,0.6 1.5,0.6 2.1,0l0.4,-0.4c0.2,0.1 0.5,0.2 0.7,0.2l3.5,9c0.1,0.2 0.3,0.3 0.5,0.3c0.1,0 0.2,-0.1 0.3,-0.1c0.1,-0.1 0.1,-0.2 0.1,-0.3l0,-10.6l11.7,-11.7l7.4,18.8c0.2,0.6 0.9,1 1.6,0.9c0.3,-0.1 0.5,-0.2 0.7,-0.4c0.3,-0.3 0.4,-0.6 0.4,-1l0,-28.4l6.2,-6.2c1.6,-1.6 4.3,-6.9 2.8,-8.4z"/>
   </g>
  </g>
 </g>
</svg>